<?xml version="1.0" encoding="UTF-8" standalone="no"?>
<!-- Created with Inkscape (http://www.inkscape.org/) -->

<svg
   xmlns:dc="http://purl.org/dc/elements/1.1/"
   xmlns:cc="http://creativecommons.org/ns#"
   xmlns:rdf="http://www.w3.org/1999/02/22-rdf-syntax-ns#"
   xmlns:svg="http://www.w3.org/2000/svg"
   xmlns="http://www.w3.org/2000/svg"
   xmlns:sodipodi="http://sodipodi.sourceforge.net/DTD/sodipodi-0.dtd"
   xmlns:inkscape="http://www.inkscape.org/namespaces/inkscape"
   width="12"
   height="12"
   id="svg2"
   version="1.1"
   inkscape:version="0.48.1 "
   sodipodi:docname="closeFilterButtonDown.svg"
   inkscape:export-filename="C:\Users\Niall\Programming\Applications\Pedalboard2\vectors\playButton.png"
   inkscape:export-xdpi="90"
   inkscape:export-ydpi="90">
  <defs
     id="defs4" />
  <sodipodi:namedview
     id="base"
     pagecolor="#ffffff"
     bordercolor="#666666"
     borderopacity="1.0"
     inkscape:pageopacity="0.0"
     inkscape:pageshadow="2"
     inkscape:zoom="8"
     inkscape:cx="6.7828279"
     inkscape:cy="3.9183185"
     inkscape:document-units="px"
     inkscape:current-layer="layer1"
     showgrid="false"
     inkscape:window-width="1366"
     inkscape:window-height="706"
     inkscape:window-x="-8"
     inkscape:window-y="-8"
     inkscape:window-maximized="1"
     showguides="true"
     inkscape:guide-bbox="true" />
  <metadata
     id="metadata7">
    <rdf:RDF>
      <cc:Work
         rdf:about="">
        <dc:format>image/svg+xml</dc:format>
        <dc:type
           rdf:resource="http://purl.org/dc/dcmitype/StillImage" />
        <dc:title />
      </cc:Work>
    </rdf:RDF>
  </metadata>
  <g
     inkscape:label="Layer 1"
     inkscape:groupmode="layer"
     id="layer1"
     transform="translate(0,-1040.3622)">
    <path
       style="fill:#000000;fill-opacity:0.50196078;stroke:none"
       d="m 4.1851599,1043.367 c -0.3243963,0.01 -0.6150316,0.1127 -0.8454192,0.3431 -0.6143667,0.6144 -0.3375808,1.6691 0.3675736,2.573 0.2907442,0.3727 0.5922353,0.7359 0.9066815,1.0905 -0.3081227,0.3487 -0.6099032,0.7024 -0.9066815,1.066 -0.7263651,0.8897 -0.9696878,1.9586 -0.3553212,2.573 0.614367,0.6143 1.6832848,0.371 2.5730153,-0.3553 0.3680127,-0.3005 0.7254002,-0.6069 1.0782161,-0.919 0.3506034,0.3099 0.7003689,0.6205 1.0659632,0.919 0.8897309,0.7263 1.9709013,0.9696 2.5852683,0.3553 0.614366,-0.6144 0.35879,-1.6833 -0.367573,-2.573 -0.296779,-0.3636 -0.59856,-0.7173 -0.906682,-1.066 0.314446,-0.3546 0.62819,-0.7178 0.918934,-1.0905 0.705153,-0.9039 0.969687,-1.9586 0.355321,-2.573 -0.614367,-0.6143 -1.6690612,-0.3498 -2.5730157,0.3554 -0.3681613,0.2871 -0.7277704,0.5963 -1.0782158,0.9066 -0.3508205,-0.3107 -0.709641,-0.6192 -1.0782161,-0.9066 -0.5649719,-0.4408 -1.1991874,-0.7068 -1.7398485,-0.6985 z"
       id="rect3800"
       inkscape:connector-curvature="0" />
  </g>
</svg>
