<?xml version="1.0" encoding="UTF-8" standalone="no"?>
<!-- Created with Inkscape (http://www.inkscape.org/) -->

<svg
   xmlns:dc="http://purl.org/dc/elements/1.1/"
   xmlns:cc="http://creativecommons.org/ns#"
   xmlns:rdf="http://www.w3.org/1999/02/22-rdf-syntax-ns#"
   xmlns:svg="http://www.w3.org/2000/svg"
   xmlns="http://www.w3.org/2000/svg"
   xmlns:sodipodi="http://sodipodi.sourceforge.net/DTD/sodipodi-0.dtd"
   xmlns:inkscape="http://www.inkscape.org/namespaces/inkscape"
   width="24"
   height="24"
   id="svg2"
   version="1.1"
   inkscape:version="0.48.1 "
   sodipodi:docname="openButton.svg"
   inkscape:export-filename="C:\Users\Niall\Programming\Applications\Pedalboard2\vectors\playButton.png"
   inkscape:export-xdpi="90"
   inkscape:export-ydpi="90">
  <defs
     id="defs4" />
  <sodipodi:namedview
     id="base"
     pagecolor="#ffffff"
     bordercolor="#666666"
     borderopacity="1.0"
     inkscape:pageopacity="0.0"
     inkscape:pageshadow="2"
     inkscape:zoom="1"
     inkscape:cx="20.751286"
     inkscape:cy="-1.5271512"
     inkscape:document-units="px"
     inkscape:current-layer="layer1"
     showgrid="false"
     inkscape:window-width="1366"
     inkscape:window-height="706"
     inkscape:window-x="-8"
     inkscape:window-y="-8"
     inkscape:window-maximized="1" />
  <metadata
     id="metadata7">
    <rdf:RDF>
      <cc:Work
         rdf:about="">
        <dc:format>image/svg+xml</dc:format>
        <dc:type
           rdf:resource="http://purl.org/dc/dcmitype/StillImage" />
        <dc:title></dc:title>
      </cc:Work>
    </rdf:RDF>
  </metadata>
  <g
     inkscape:label="Layer 1"
     inkscape:groupmode="layer"
     id="layer1"
     transform="translate(0,-1028.3622)">
    <path
       style="fill:#000000;fill-opacity:0.50196078;stroke:none"
       d="M 4.5786828,1032.3622 C 3.7069779,1032.3622 3,1033.2096 3,1034.262 l 0,2.8497 0,0.95 0,7.718 c 0,0.8477 0.1995382,1.4288 0.659536,1.8997 0.4599977,0.4712 1.1457389,0.6828 1.9659069,0.6828 l 9.3785041,0 c 0.644546,0 1.200344,-0.1052 1.638256,-0.4156 0.437913,-0.3104 0.711161,-0.7645 1.01274,-1.3952 0.578168,-1.209 2.071751,-4.2983 2.770141,-5.7587 0.360257,-0.7534 0.62803,-1.3994 0.565943,-2.0484 -0.03104,-0.3244 -0.184169,-0.6873 -0.476583,-0.8905 -0.292415,-0.2032 -0.675925,-0.2672 -1.1021,-0.2672 l -1.191459,0 0,-0.4749 c 0,-1.0524 -0.706978,-1.8998 -1.578682,-1.8998 l -7.3572581,0 0,-0.9499 c 0,-1.0524 -0.7069779,-1.8998 -1.5786828,-1.8998 z m 4.2296786,6.1744 9.4125236,0 1.191459,0 c 0.311393,0 0.476182,0.077 0.536157,0.1188 0.05997,0.042 0.07753,0.053 0.08936,0.1781 0.02366,0.2471 -0.138445,0.8363 -0.476584,1.5435 -0.6984,1.4606 -2.191969,4.5497 -2.770142,5.759 -0.276591,0.5784 -0.492636,0.8812 -0.714875,1.0388 -0.222239,0.1575 -0.515736,0.2374 -1.072313,0.2374 l -9.3785039,0 c -0.6549643,0 -1.087329,-0.1877 -1.2808181,-0.3857 -0.1934891,-0.1983 -0.2754648,-0.4095 -0.059573,-0.861 0,0 1.9155085,-4.8293 2.5871891,-6.2338 0.31328,-0.6552 0.5810673,-0.9811 0.8638076,-1.1577 0.036795,-0.022 0.08083,-0.039 0.1191459,-0.059 0.1088971,-0.054 0.2286586,-0.091 0.3574376,-0.1188 0.09241,-0.018 0.1995478,-0.02 0.2978646,-0.029 0.1004324,-0.01 0.1805737,-0.029 0.2978648,-0.029 z"
       id="rect2984"
       inkscape:connector-curvature="0"
       sodipodi:nodetypes="ssccccssscsssscsscsssscsccccsssccscsccs" />
  </g>
</svg>
