<?xml version="1.0" encoding="UTF-8" standalone="no"?>
<!-- Created with Inkscape (http://www.inkscape.org/) -->

<svg
   xmlns:dc="http://purl.org/dc/elements/1.1/"
   xmlns:cc="http://creativecommons.org/ns#"
   xmlns:rdf="http://www.w3.org/1999/02/22-rdf-syntax-ns#"
   xmlns:svg="http://www.w3.org/2000/svg"
   xmlns="http://www.w3.org/2000/svg"
   xmlns:sodipodi="http://sodipodi.sourceforge.net/DTD/sodipodi-0.dtd"
   xmlns:inkscape="http://www.inkscape.org/namespaces/inkscape"
   width="24"
   height="24"
   id="svg2"
   version="1.1"
   inkscape:version="0.48.1 "
   sodipodi:docname="newButton.svg"
   inkscape:export-filename="C:\Users\Niall\Programming\Applications\Pedalboard2\vectors\playButton.png"
   inkscape:export-xdpi="90"
   inkscape:export-ydpi="90">
  <defs
     id="defs4" />
  <sodipodi:namedview
     id="base"
     pagecolor="#ffffff"
     bordercolor="#666666"
     borderopacity="1.0"
     inkscape:pageopacity="0.0"
     inkscape:pageshadow="2"
     inkscape:zoom="1"
     inkscape:cx="11.257623"
     inkscape:cy="8.0568034"
     inkscape:document-units="px"
     inkscape:current-layer="layer1"
     showgrid="false"
     inkscape:window-width="1366"
     inkscape:window-height="706"
     inkscape:window-x="-8"
     inkscape:window-y="-8"
     inkscape:window-maximized="1" />
  <metadata
     id="metadata7">
    <rdf:RDF>
      <cc:Work
         rdf:about="">
        <dc:format>image/svg+xml</dc:format>
        <dc:type
           rdf:resource="http://purl.org/dc/dcmitype/StillImage" />
        <dc:title></dc:title>
      </cc:Work>
    </rdf:RDF>
  </metadata>
  <g
     inkscape:label="Layer 1"
     inkscape:groupmode="layer"
     id="layer1"
     transform="translate(0,-1028.3622)">
    <path
       style="fill:#000000;fill-opacity:0.50196078;stroke:none"
       d="m 5.828125,1032.1904 c -1.108,0 -2,0.892 -2,2 l 0,12.3437 c 0,1.108 0.892,2 2,2 l 1,0 0,-6.9687 c 0,-0.554 0.446,-1 1,-1 l 8.34375,0 c 0.554,0 1,0.446 1,1 l 0,6.9687 1,0 c 1.108,0 2,-0.892 2,-2 l 0,-9.9687 c 0,-1.7076 -2.457212,-4.375 -4.375,-4.375 l -1.09375,0 0,3.2812 c 0,1.108 -0.892,2 -2,2 l -3.6875,0 c -1.108,0 -2,-0.892 -2,-2 l 0,-3.2812 -1.1875,0 z"
       id="rect3777"
       inkscape:connector-curvature="0" />
    <path
       style="fill:#000000;fill-opacity:0.50196078;stroke:none"
       d="m 12.388693,1032.4259 c 0.554,0 1,0.446 1,1 l 0,2 c 0,0.554 -0.446,1 -1,1 -0.554,0 -1,-0.446 -1,-1 l 0,-2 c 0,-0.554 0.446,-1 1,-1 z"
       id="rect3788"
       inkscape:connector-curvature="0" />
  </g>
</svg>
